<svg id="Ebene_1" data-name="Ebene 1" xmlns="http://www.w3.org/2000/svg" xmlns:xlink="http://www.w3.org/1999/xlink" viewBox="0 0 432.66 396.61"><defs><style>.cls-1{fill:url(#Unbenannter_Verlauf_2);}.cls-2{fill:url(#Unbenannter_Verlauf_2-2);}</style><linearGradient id="Unbenannter_Verlauf_2" y1="198.3" x2="432.66" y2="198.3" gradientUnits="userSpaceOnUse"><stop offset="0" stop-color="#fb9f27"/><stop offset="1" stop-color="#f95900"/></linearGradient><linearGradient id="Unbenannter_Verlauf_2-2" x1="351.54" y1="45.07" x2="369.56" y2="45.07" xlink:href="#Unbenannter_Verlauf_2"/></defs><title>x_</title><path class="cls-1" d="M367.31,396.61l65.35-224.06V144.22H315.48V99.15H225.34v45.07H162.25V99.15H90.14V72.86h-18V216.33h28.42l-3,18H54.08V54.08H333.51v-18H90.14V18H387.59V126.19h18V0H72.11V36.05H36.05V144.22H0v28.15L56.06,396.61ZM36.05,242.26,18,170.15v-7.9h18ZM243.37,117.18h54.09v27H243.37Zm-18,55.21V162.25h90.14v7.88l-7.19,28.17H218.73ZM90.14,198.3V117.18h54.08v27h-36v26.3l-4.64,27.78Zm35.93-25.56.12-.73v-9.76h81.13v7.88l-11.79,46.2H322.3l11.21-43.94V162.25h81.12V170L353.79,378.58h-262ZM94.52,252.39l-21,126.19H70.13L38.59,252.39Z"/><rect class="cls-2" x="351.54" y="36.05" width="18.03" height="18.03"/></svg>