<svg id="Ebene_1" data-name="Ebene 1" xmlns="http://www.w3.org/2000/svg" xmlns:xlink="http://www.w3.org/1999/xlink" viewBox="0 0 434.34 371"><defs><style>.cls-1{fill:url(#Unbenannter_Verlauf_2);}.cls-2{fill:url(#Unbenannter_Verlauf_2-2);}.cls-3{fill:url(#Unbenannter_Verlauf_2-3);}</style><linearGradient id="Unbenannter_Verlauf_2" x1="45.24" y1="217.17" x2="389.1" y2="217.17" gradientUnits="userSpaceOnUse"><stop offset="0" stop-color="#fb9f27"/><stop offset="1" stop-color="#f95900"/></linearGradient><linearGradient id="Unbenannter_Verlauf_2-2" x1="0" y1="185.5" x2="434.34" y2="185.5" xlink:href="#Unbenannter_Verlauf_2"/><linearGradient id="Unbenannter_Verlauf_2-3" x1="289.56" y1="219.04" x2="361.95" y2="219.04" xlink:href="#Unbenannter_Verlauf_2"/></defs><title>x_</title><path class="cls-1" d="M153.83,334.8h72.39V280.51H389.1v-181H153.83v54.29H45.24v181H153.83Zm181-217.17H371v36.2H334.8Zm-54.29,0h36.2v36.2h-36.2Zm0,108.59V171.93H371v90.48H280.51ZM226.22,117.63h36.19v36.2H226.22Zm0,54.3h36.19v36.19H226.22Zm0,54.29h36.19v36.19H226.22ZM171.93,117.63h36.19v36.2H171.93Zm0,54.3h36.19v36.19H171.93Zm0,54.29h36.19v36.19H171.93Zm0,54.29h36.19v36.2H171.93Zm-54.3-108.58h36.2v36.19h-36.2Zm0,54.29h36.2v36.19h-36.2Zm0,54.29h36.2v36.2h-36.2Zm-18.09,36.2H63.34v-36.2h36.2Zm0-54.3H63.34V226.22h36.2Zm0-54.29H63.34V171.93h36.2Z"/><path class="cls-2" d="M434.34,18.1H389.1V0H371V18.1H334.8V0H316.71V18.1h-36.2V0h-18.1V18.1H226.22V0h-18.1V18.1H171.93V0h-18.1V18.1h-36.2V0H99.54V18.1H63.34V0H45.24V18.1H0V81.44H416.24V352.9H18.1V99.54H0V371H434.34Zm-18.1,45.24H18.1V36.2H416.24Z"/><path class="cls-3" d="M346.5,192.67l-29.79,29.8L305,210.77a9.05,9.05,0,0,0-12.8,12.8l24.5,24.49,42.59-42.59a9.05,9.05,0,0,0-12.8-12.8Z"/></svg>